<svg xmlns="http://www.w3.org/2000/svg" viewBox="0 0 253.75 253.75"><defs><style>.cls-1{fill:#1d1e1e;}.cls-2{fill:#fff;}</style></defs><title>facebook</title><g id="Layer_2" data-name="Layer 2"><g id="Var2"><g id="Иконки"><path class="cls-1" d="M126.81,253.75h.13A126.82,126.82,0,0,0,253.75,126.94v-.07A126.87,126.87,0,0,0,126.88,0h0A126.87,126.87,0,0,0,0,126.87v.07A126.82,126.82,0,0,0,126.81,253.75Z"/><path id="facebook" class="cls-2" d="M138.81,207.4V137.07h23.61l3.53-27.4H138.81V92.17c0-7.93,2.2-13.34,13.58-13.34h14.52V54.31a195.22,195.22,0,0,0-21.15-1.08c-20.93,0-35.25,12.77-35.25,36.23v20.21H86.84v27.4h23.67V207.4Z"/></g></g></g></svg>