<svg xmlns="http://www.w3.org/2000/svg" viewBox="0 0 253.75 253.75"><defs><style>.cls-1{fill:#1d1e1e;}.cls-2{fill:#fff;fill-rule:evenodd;}</style></defs><title>gplus</title><g id="Layer_2" data-name="Layer 2"><g id="Var2"><g id="Иконки"><path class="cls-1" d="M126.81,253.75h.13A126.82,126.82,0,0,0,253.75,126.94v-.07A126.87,126.87,0,0,0,126.88,0h0A126.87,126.87,0,0,0,0,126.87v.07A126.82,126.82,0,0,0,126.81,253.75Z"/><g id="g_" data-name="g+"><polygon class="cls-2" points="186.9 119.72 186.9 102.61 174.7 102.61 174.7 119.72 157.59 119.72 157.59 131.92 174.7 131.92 174.7 149.03 186.9 149.03 186.9 131.92 204.02 131.92 204.02 119.72 186.9 119.72"/><path class="cls-2" d="M98.81,118.42V138H125a22.43,22.43,0,0,1-5.38,11.07c-10.51,11.47-30.1,11.35-41.32-.19a29.72,29.72,0,0,1,.28-41.55c10.81-10.83,28.23-11.3,38.76-1l0,0,14.29-14.29a49,49,0,0,0-67.77,70.63c19,19.29,52,19.48,69.83.32,10.76-11.56,13.85-28.14,11.28-44.58Z"/></g></g></g></g></svg>