<svg xmlns="http://www.w3.org/2000/svg" viewBox="0 0 253.75 253.75"><defs><style>.cls-1{fill:#1d1e1e;}.cls-2{fill:#fff;}</style></defs><title>instagram</title><g id="Layer_2" data-name="Layer 2"><g id="Var2"><g id="Иконки"><path class="cls-1" d="M126.81,253.75h.13A126.82,126.82,0,0,0,253.75,126.94v-.07A126.87,126.87,0,0,0,126.88,0h0A126.87,126.87,0,0,0,0,126.87v.07A126.82,126.82,0,0,0,126.81,253.75Z"/><g id="instagram"><path class="cls-2" d="M126.87,73.54c17.38,0,19.43.06,26.3.38a36.1,36.1,0,0,1,12.08,2.24A21.47,21.47,0,0,1,177.59,88.5a36.1,36.1,0,0,1,2.24,12.08c.32,6.87.38,8.92.38,26.29s-.06,19.43-.38,26.3a36.1,36.1,0,0,1-2.24,12.08,21.47,21.47,0,0,1-12.34,12.34,36.1,36.1,0,0,1-12.08,2.24c-6.86.32-8.92.38-26.3.38s-19.43-.06-26.29-.38a36.1,36.1,0,0,1-12.08-2.24,21.47,21.47,0,0,1-12.34-12.34,36.1,36.1,0,0,1-2.24-12.08c-.32-6.87-.38-8.92-.38-26.3s.06-19.42.38-26.29A36.1,36.1,0,0,1,76.16,88.5,21.47,21.47,0,0,1,88.5,76.16a36.1,36.1,0,0,1,12.08-2.24c6.87-.32,8.92-.38,26.29-.38m0-11.73c-17.66,0-19.88.08-26.82.4a47.59,47.59,0,0,0-15.79,3,33.2,33.2,0,0,0-19,19,47.59,47.59,0,0,0-3,15.79c-.32,6.94-.4,9.16-.4,26.82s.08,19.89.4,26.83a47.59,47.59,0,0,0,3,15.79,33.2,33.2,0,0,0,19,19,47.59,47.59,0,0,0,15.79,3c6.94.32,9.16.4,26.82.4s19.89-.08,26.83-.4a47.59,47.59,0,0,0,15.79-3,33.2,33.2,0,0,0,19-19,47.59,47.59,0,0,0,3-15.79c.32-6.94.4-9.16.4-26.83s-.08-19.88-.4-26.82a47.59,47.59,0,0,0-3-15.79,33.2,33.2,0,0,0-19-19,47.59,47.59,0,0,0-15.79-3c-6.94-.32-9.16-.4-26.83-.4Z"/><path class="cls-2" d="M126.87,93.47a33.41,33.41,0,1,0,33.41,33.4A33.4,33.4,0,0,0,126.87,93.47Zm0,55.09a21.69,21.69,0,1,1,21.69-21.69A21.69,21.69,0,0,1,126.87,148.56Z"/><circle class="cls-2" cx="161.6" cy="92.15" r="7.81"/></g></g></g></g></svg>