<svg xmlns="http://www.w3.org/2000/svg" viewBox="0 0 113.39 104.84" fill="#ffffff"><defs><style>.cls-1{fill-rule:evenodd;}</style></defs><title>phone</title><g id="Layer_2" data-name="Layer 2"><g id="Isolation_Mode" data-name="Isolation Mode"><path class="cls-1" d="M113,77.56c-.7-1.15-2.56-1.84-5.34-3.23s-16.52-8.08-19.07-9S84.14,64,82.3,66.71s-7.21,9-8.85,10.85-3.24,2.08-6,.7S55.63,73.94,45,64.53A83.94,83.94,0,0,1,29.46,45.35c-1.62-2.76-.17-4.26,1.22-5.64s2.79-3.23,4.18-4.84a19.2,19.2,0,0,0,2.8-4.63,5,5,0,0,0-.24-4.84c-.69-1.39-6.28-15-8.61-20.56S24.17.23,22.54.23,19.05,0,17.19,0A10.25,10.25,0,0,0,9.76,3.46C7.21,6.23,0,12.93,0,26.54S10,53.33,11.38,55.17,30.68,85.88,59,97s28.36,7.38,33.48,6.92,16.5-6.69,18.83-13.16,2.33-12,1.63-13.16"/></g></g></svg>