<svg xmlns="http://www.w3.org/2000/svg" viewBox="0 0 253.75 253.75"><defs><style>.cls-1{fill:#1d1e1e;}.cls-2{fill:#fff;}</style></defs><title>vk</title><g id="Layer_2" data-name="Layer 2"><g id="Var2"><g id="Иконки"><path class="cls-1" d="M126.81,253.75h.13A126.82,126.82,0,0,0,253.75,126.94v-.07A126.87,126.87,0,0,0,126.88,0h0A126.87,126.87,0,0,0,0,126.87v.07A126.82,126.82,0,0,0,126.81,253.75Z"/><path id="vk" class="cls-2" d="M174.41,130.51c-4.69-5-11.53-8.4-18.88-10v-.68a28.45,28.45,0,0,0,12.91-10.59,29.88,29.88,0,0,0,4.7-16.43,28.72,28.72,0,0,0-3.31-14A24.19,24.19,0,0,0,159.73,69a40.59,40.59,0,0,0-13.41-4.52,153.88,153.88,0,0,0-21-1.12H79.93V190.4h51.29a80.49,80.49,0,0,0,21.63-2.78,44.82,44.82,0,0,0,15.63-8.17,34.26,34.26,0,0,0,9.57-11.87A36.7,36.7,0,0,0,181.52,151C181.52,142.43,179.09,135.56,174.41,130.51Zm-63-44.06h3c5.64,0,9.89.12,12.74.2a20.27,20.27,0,0,1,7.41,1.52,9.46,9.46,0,0,1,4.87,4.68A14.24,14.24,0,0,1,141,99.13a17.26,17.26,0,0,1-1.44,7.28,10.23,10.23,0,0,1-5.25,4.92,18.88,18.88,0,0,1-6.73,2c-2.18.12-6,.41-11.39.41h-4.8ZM147,158.54A12.61,12.61,0,0,1,140.7,164c-3.28,1.42-6.49,2.6-9.65,2.71s-8.87.59-17.11.59h-2.51V134.75h6.66c5.64,0,10.15.1,13.51.19a24.2,24.2,0,0,1,7.91,1.26,14.4,14.4,0,0,1,7.12,5c1.58,2.2,2.37,5.26,2.37,9.15A16.71,16.71,0,0,1,147,158.54Z"/></g></g></g></svg>