<svg xmlns="http://www.w3.org/2000/svg" viewBox="0 0 212.6 212.6" fill="#010101"><defs><style>.cls-1{fill-rule:evenodd;}</style></defs><title>whatsapp</title><g id="Layer_2" data-name="Layer 2"><g id="Isolation_Mode" data-name="Isolation Mode"><path class="cls-1" d="M212.6,103.57c0,57.18-46.73,103.55-104.36,103.55a104.47,104.47,0,0,1-50.45-12.88L0,212.6,18.83,157a102.51,102.51,0,0,1-15-53.47C3.87,46.37,50.59,0,108.24,0S212.6,46.37,212.6,103.57M108.24,16.49c-48.4,0-87.75,39.06-87.75,87.08A86.16,86.16,0,0,0,37.2,154.62L26.24,187,60,176.23a87.71,87.71,0,0,0,48.28,14.4c48.37,0,87.74-39.06,87.74-87.06s-39.37-87.08-87.74-87.08m52.7,110.93c-.65-1.06-2.36-1.7-4.9-3s-15.15-7.41-17.49-8.25-4.06-1.27-5.76,1.26-6.61,8.26-8.1,10-3,1.9-5.54.63-10.81-4-20.58-12.59A77.17,77.17,0,0,1,84.34,97.88c-1.49-2.54-.15-3.91,1.12-5.18s2.56-3,3.84-4.44A17.75,17.75,0,0,0,91.86,84a4.63,4.63,0,0,0-.22-4.45c-.64-1.26-5.76-13.76-7.89-18.84S79.49,56.5,78,56.5s-3.19-.21-4.9-.21a9.44,9.44,0,0,0-6.82,3.17c-2.34,2.54-8.95,8.68-8.95,21.17s9.16,24.56,10.44,26.25,17.7,28.16,43.71,38.33,26,6.77,30.7,6.34,15.13-6.14,17.27-12.07,2.13-11,1.5-12.06"/></g></g></svg>