<svg xmlns="http://www.w3.org/2000/svg" viewBox="0 0 253.75 253.75"><defs><style>.cls-1{fill:#1d1e1e;}.cls-2,.cls-3{fill:#fff;}.cls-3{fill-rule:evenodd;}</style></defs><title>youtube</title><g id="Layer_2" data-name="Layer 2"><g id="Var2"><g id="Иконки"><path class="cls-1" d="M126.81,253.75h.13A126.82,126.82,0,0,0,253.75,126.94v-.07A126.87,126.87,0,0,0,126.88,0h0A126.87,126.87,0,0,0,0,126.87v.07A126.82,126.82,0,0,0,126.81,253.75Z"/><g id="youtube"><path class="cls-2" d="M163,149.26q-3.47,0-3.47,5.3v3.53h6.92v-3.53C166.42,151,165.26,149.26,163,149.26Z"/><path class="cls-2" d="M179.88,129.85a14.46,14.46,0,0,0-12.37-11.24C153.31,117,139,117,124.64,117S96,117,81.77,118.61A14.46,14.46,0,0,0,69.4,129.85c-2,8.67-2,18.14-2,27.07s0,18.39,2,27.06a14.44,14.44,0,0,0,12.37,11.24c14.2,1.59,28.56,1.6,42.87,1.59s28.67,0,42.87-1.59A14.44,14.44,0,0,0,179.86,184c2-8.67,2-18.14,2-27.06S181.88,138.52,179.88,129.85ZM100,137.65H91.75v44H84.06v-44H75.92v-7.21H100Zm20.9,44H114v-4.16c-2.75,3.15-5.36,4.69-7.91,4.69-2.23,0-3.76-.91-4.45-2.84a19.4,19.4,0,0,1-.61-5.68V143.5H108v28.11a19.27,19.27,0,0,0,.07,2.69c.16,1.07.69,1.62,1.61,1.62,1.39,0,2.84-1.07,4.38-3.24V143.5h6.92Zm26.28-11.46a30.78,30.78,0,0,1-.69,7.7c-.93,2.84-2.78,4.29-5.53,4.29-2.46,0-4.84-1.37-7.15-4.23v3.7h-6.92V130.44h6.92v16.73c2.23-2.74,4.6-4.13,7.15-4.13,2.75,0,4.6,1.45,5.53,4.3a29.69,29.69,0,0,1,.69,7.68Zm26.11-6.37H159.5v6.77c0,3.53,1.16,5.3,3.53,5.3,1.7,0,2.7-.93,3.09-2.78a42.47,42.47,0,0,0,.15-4.68h7.06v1c0,2.23-.08,3.76-.14,4.45a10,10,0,0,1-1.62,4.15,9.57,9.57,0,0,1-8.37,4.14,9.89,9.89,0,0,1-8.37-3.91c-1.47-1.91-2.22-4.93-2.22-9V156c0-4.08.67-7.07,2.14-9A9.82,9.82,0,0,1,163,143a9.61,9.61,0,0,1,8.16,3.91c1.45,1.93,2.14,4.92,2.14,9Z"/><path class="cls-2" d="M137.3,149.26a5,5,0,0,0-3.45,1.68v23.28a5,5,0,0,0,3.45,1.7c2,0,3-1.7,3-5.15v-16.3C140.31,151,139.29,149.26,137.3,149.26Z"/><path class="cls-3" d="M112.64,58.34h-7.83L99.52,78.66,94,58.34H85.87c1.63,4.8,3.33,9.62,5,14.42a127.89,127.89,0,0,1,4.73,16.37v21h7.75v-21Zm20.72,39.27V84.1c0-4.12-.71-7.14-2.17-9.09a10.37,10.37,0,0,0-16.29,0c-1.49,1.95-2.19,5-2.19,9.09V97.61c0,4.09.7,7.13,2.19,9.07a10.37,10.37,0,0,0,16.29,0C132.65,104.74,133.36,101.7,133.36,97.61Zm-7,1.31c0,3.57-1.08,5.36-3.34,5.36s-3.33-1.79-3.33-5.36V82.7c0-3.57,1.08-5.35,3.33-5.35s3.34,1.78,3.34,5.35Zm32.83,11.17V71.53h-7V101q-2.33,3.28-4.41,3.28c-.94,0-1.49-.56-1.64-1.64a15.4,15.4,0,0,1-.09-2.72V71.53h-7V102a19.4,19.4,0,0,0,.62,5.74c.69,1.95,2.25,2.87,4.5,2.87,2.54,0,5.2-1.55,8-4.75v4.21Z"/></g></g></g></g></svg>